<svg width="20" height="19" viewBox="0 0 20 19" fill="none" xmlns="http://www.w3.org/2000/svg">
<path fill-rule="evenodd" clip-rule="evenodd" d="M17.9657 7.91667H12.5803C12.08 7.91667 11.665 8.21222 11.4734 8.63445L9.67468 12.825C9.61082 12.9622 9.57889 13.11 9.57889 13.2578V14.25C9.57889 14.6828 9.94076 15.0417 10.3771 15.0417H14.5173L13.9958 17.5644L13.9745 17.7544C13.9745 17.9972 14.081 18.2189 14.2406 18.3878L14.8579 19L18.7959 15.0839C19.0088 14.8728 19.1471 14.5667 19.1471 14.25V9.09889C19.1578 8.44444 18.6256 7.91667 17.9657 7.91667ZM9.57889 4.75C9.57889 4.31722 9.21702 3.95833 8.78065 3.95833H4.64044L5.16196 1.43556L5.18324 1.25611C5.18324 1.01333 5.07681 0.791667 4.91716 0.622778L4.28921 0L0.351226 3.91611C0.138362 4.12722 0 4.42278 0 4.75V9.90111C0 10.5556 0.53216 11.0833 1.19204 11.0833H6.5775C7.06709 11.0833 7.49282 10.7772 7.67375 10.3656L9.4831 6.175C9.54696 6.03778 9.57889 5.89 9.57889 5.74222V4.75Z" fill="#D5E14F"/>
</svg>
