<svg width="58" height="10" viewBox="0 0 58 10" fill="none" xmlns="http://www.w3.org/2000/svg">
<path d="M4.2008 0.447686C4.39475 -0.149229 5.23922 -0.149228 5.43317 0.447686L6.12614 2.58043C6.21288 2.84738 6.46164 3.02812 6.74233 3.02812H8.98483C9.61246 3.02812 9.87342 3.83126 9.36566 4.20017L7.55143 5.51828C7.32435 5.68327 7.22934 5.97571 7.31607 6.24265L8.00904 8.3754C8.20299 8.97231 7.5198 9.46869 7.01203 9.09977L5.19781 7.78166C4.97073 7.61668 4.66324 7.61668 4.43616 7.78166L2.62194 9.09977C2.11417 9.46869 1.43098 8.97231 1.62493 8.3754L2.3179 6.24265C2.40464 5.97571 2.30962 5.68327 2.08254 5.51828L0.268315 4.20017C-0.239451 3.83126 0.0215061 3.02812 0.649139 3.02812H2.89164C3.17233 3.02812 3.42109 2.84738 3.50783 2.58043L4.2008 0.447686Z" fill="#FFE600"/>
<path d="M16.2922 0.447747C16.4862 -0.149168 17.3307 -0.149167 17.5246 0.447747L18.2176 2.58049C18.3043 2.84744 18.5531 3.02818 18.8338 3.02818H21.0763C21.7039 3.02818 21.9649 3.83132 21.4571 4.20024L19.6429 5.51834C19.4158 5.68333 19.3208 5.97577 19.4075 6.24272L20.1005 8.37546C20.2944 8.97238 19.6112 9.46875 19.1035 9.09983L17.2892 7.78172C17.0622 7.61674 16.7547 7.61674 16.5276 7.78172L14.7134 9.09983C14.2056 9.46875 13.5224 8.97238 13.7164 8.37546L14.4093 6.24272C14.4961 5.97577 14.401 5.68333 14.174 5.51834L12.3597 4.20024C11.852 3.83132 12.1129 3.02818 12.7406 3.02818H14.9831C15.2638 3.02818 15.5125 2.84744 15.5993 2.58049L16.2922 0.447747Z" fill="#FFE600"/>
<path d="M28.3846 0.447747C28.5786 -0.149168 29.4231 -0.149167 29.617 0.447747L30.31 2.58049C30.3967 2.84744 30.6455 3.02818 30.9262 3.02818H33.1687C33.7963 3.02818 34.0573 3.83132 33.5495 4.20024L31.7353 5.51834C31.5082 5.68333 31.4132 5.97577 31.4999 6.24272L32.1929 8.37546C32.3868 8.97238 31.7036 9.46875 31.1959 9.09983L29.3816 7.78172C29.1546 7.61674 28.8471 7.61674 28.62 7.78172L26.8058 9.09983C26.298 9.46875 25.6148 8.97238 25.8088 8.37546L26.5017 6.24272C26.5885 5.97577 26.4935 5.68333 26.2664 5.51834L24.4522 4.20024C23.9444 3.83132 24.2053 3.02818 24.833 3.02818H27.0755C27.3562 3.02818 27.6049 2.84744 27.6917 2.58049L28.3846 0.447747Z" fill="#FFE600"/>
<path d="M40.4752 0.447686C40.6692 -0.149229 41.5136 -0.149228 41.7076 0.447686L42.4006 2.58043C42.4873 2.84738 42.7361 3.02812 43.0167 3.02812H45.2592C45.8869 3.02812 46.1478 3.83126 45.6401 4.20017L43.8258 5.51828C43.5988 5.68327 43.5037 5.97571 43.5905 6.24265L44.2835 8.3754C44.4774 8.97231 43.7942 9.46869 43.2864 9.09977L41.4722 7.78166C41.2451 7.61668 40.9377 7.61668 40.7106 7.78166L38.8964 9.09977C38.3886 9.46869 37.7054 8.97231 37.8993 8.3754L38.5923 6.24265C38.679 5.97571 38.584 5.68327 38.357 5.51828L36.5427 4.20017C36.035 3.83126 36.2959 3.02812 36.9236 3.02812H39.1661C39.4467 3.02812 39.6955 2.84738 39.7822 2.58043L40.4752 0.447686Z" fill="#FFE600"/>
<mask id="mask0_715_499" style="mask-type:alpha" maskUnits="userSpaceOnUse" x="48" y="0" width="10" height="10">
<path d="M52.5666 0.447686C52.7606 -0.149229 53.6051 -0.149228 53.799 0.447686L54.492 2.58043C54.5787 2.84738 54.8275 3.02812 55.1082 3.02812H57.3507C57.9783 3.02812 58.2393 3.83126 57.7315 4.20017L55.9173 5.51828C55.6902 5.68327 55.5952 5.97571 55.6819 6.24265L56.3749 8.3754C56.5688 8.97231 55.8856 9.46869 55.3779 9.09977L53.5637 7.78166C53.3366 7.61668 53.0291 7.61668 52.802 7.78166L50.9878 9.09977C50.48 9.46869 49.7968 8.97231 49.9908 8.3754L50.6837 6.24265C50.7705 5.97571 50.6755 5.68327 50.4484 5.51828L48.6342 4.20017C48.1264 3.83126 48.3874 3.02812 49.015 3.02812H51.2575C51.5382 3.02812 51.7869 2.84738 51.8737 2.58043L52.5666 0.447686Z" fill="#E5E5E5"/>
</mask>
<g mask="url(#mask0_715_499)">
<path d="M52.531 0.447655C52.7249 -0.149259 53.5694 -0.149259 53.7634 0.447655L54.4563 2.5804C54.5431 2.84735 54.7918 3.02809 55.0725 3.02809H57.315C57.9427 3.02809 58.2036 3.83123 57.6959 4.20014L55.8816 5.51825C55.6546 5.68324 55.5595 5.97568 55.6463 6.24262L56.3392 8.37537C56.5332 8.97228 55.85 9.46865 55.3422 9.09974L53.528 7.78163C53.3009 7.61665 52.9934 7.61665 52.7664 7.78163L50.9521 9.09974C50.4444 9.46865 49.7612 8.97228 49.9551 8.37537L50.6481 6.24262C50.7348 5.97568 50.6398 5.68324 50.4127 5.51825L48.5985 4.20014C48.0907 3.83123 48.3517 3.02809 48.9793 3.02809H51.2218C51.5025 3.02809 51.7513 2.84735 51.838 2.5804L52.531 0.447655Z" fill="#FFE600"/>
<rect x="54.8844" y="-0.819153" width="4.91508" height="10.6493" fill="#E5E5E5"/>
</g>
</svg>
